<?xml version="1.0" encoding="UTF-8" standalone="no"?>
<!-- Created with Inkscape (http://www.inkscape.org/) -->

<svg
   xmlns:dc="http://purl.org/dc/elements/1.1/"
   xmlns:cc="http://creativecommons.org/ns#"
   xmlns:rdf="http://www.w3.org/1999/02/22-rdf-syntax-ns#"
   xmlns:svg="http://www.w3.org/2000/svg"
   xmlns="http://www.w3.org/2000/svg"
   xmlns:sodipodi="http://sodipodi.sourceforge.net/DTD/sodipodi-0.dtd"
   xmlns:inkscape="http://www.inkscape.org/namespaces/inkscape"
   width="128"
   height="96"
   id="svg2"
   version="1.1"
   inkscape:version="0.48.4 r9939"
   sodipodi:docname="elephant.svg"
   inkscape:export-filename="/home/princengoc/clashadash/images/human/elephant.png"
   inkscape:export-xdpi="90"
   inkscape:export-ydpi="90">
  <defs
     id="defs4" />
  <sodipodi:namedview
     id="base"
     pagecolor="#ffffff"
     bordercolor="#666666"
     borderopacity="1.0"
     inkscape:pageopacity="0.0"
     inkscape:pageshadow="2"
     inkscape:zoom="2.8"
     inkscape:cx="-51.664783"
     inkscape:cy="44.412192"
     inkscape:document-units="px"
     inkscape:current-layer="layer1"
     showgrid="true"
     inkscape:window-width="1916"
     inkscape:window-height="1041"
     inkscape:window-x="0"
     inkscape:window-y="18"
     inkscape:window-maximized="0">
    <inkscape:grid
       type="xygrid"
       id="grid2985"
       empspacing="5"
       visible="true"
       enabled="true"
       snapvisiblegridlinesonly="true" />
  </sodipodi:namedview>
  <metadata
     id="metadata7">
    <rdf:RDF>
      <cc:Work
         rdf:about="">
        <dc:format>image/svg+xml</dc:format>
        <dc:type
           rdf:resource="http://purl.org/dc/dcmitype/StillImage" />
        <dc:title></dc:title>
      </cc:Work>
    </rdf:RDF>
  </metadata>
  <g
     inkscape:label="Layer 1"
     inkscape:groupmode="layer"
     id="layer1"
     transform="translate(0,-956.36218)">
    <g
       id="g3470"
       transform="matrix(1.0428429,0,0,0.94157793,16.033842,70.189301)">
      <path
         sodipodi:nodetypes="csccc"
         inkscape:connector-curvature="0"
         id="path3089"
         d="m 31.149229,946.28028 c 0,0 -4.144185,-0.76388 -5.988359,0 -3.912085,1.62043 -8.98254,9.58138 -8.98254,9.58138 -0.138867,18.46886 8.24902,19.67107 17.965079,17.36623 -4.864987,-7.95573 -4.109669,-17.40384 -2.99418,-26.94761 z"
         style="fill:none;stroke:#000000;stroke-width:0.59883595px;stroke-linecap:butt;stroke-linejoin:miter;stroke-opacity:1" />
      <path
         sodipodi:nodetypes="cc"
         inkscape:connector-curvature="0"
         id="path3091"
         d="m 31.149229,946.28028 c 11.329635,-2.01964 21.231621,-2.20372 26.947618,2.99417"
         style="fill:none;stroke:#000000;stroke-width:0.59883595px;stroke-linecap:butt;stroke-linejoin:miter;stroke-opacity:1" />
      <path
         sodipodi:nodetypes="ccc"
         inkscape:connector-curvature="0"
         id="path3093"
         d="m 58.096847,949.27445 c 13.641618,-7.80235 14.185594,24.00497 7.784866,23.95344 -16.653848,0.0385 -12.415622,-19.94424 -7.784866,-23.95344 z"
         style="fill:none;stroke:#000000;stroke-width:0.59883595px;stroke-linecap:butt;stroke-linejoin:miter;stroke-opacity:1" />
      <path
         sodipodi:nodetypes="ccsscsssc"
         inkscape:connector-curvature="0"
         id="path3095"
         d="m 34.143409,973.22789 c 1.687808,-0.38143 2.262919,1.46253 2.994179,2.99419 -7.253569,3.26132 -8.790864,2.40589 -11.976718,0 C 16.559582,969.72656 4.2016115,954.09277 4.2016115,958.257 l 1.197672,6.58719 -4.1918521,2.39534 c -0.84105881,0.48062 15.8527266,2.84335 19.7615866,13.1744 2.168166,5.73042 14.634973,7.16594 15.569734,7.18603 17.610988,0.37847 18.185594,-6.58749 18.563916,-17.36624"
         style="fill:none;stroke:#000000;stroke-width:0.59883595px;stroke-linecap:butt;stroke-linejoin:miter;stroke-opacity:1" />
      <path
         sodipodi:nodetypes="csssssc"
         inkscape:connector-curvature="0"
         id="path3110"
         d="m 31.149229,987.00112 c 1.912035,3.84316 2.956521,7.53428 1.796508,10.77905 -3.240628,9.06473 -15.378415,14.21903 -19.761587,17.36623 -6.0729742,4.3606 -8.0687834,14.9396 -5.9883593,14.9709 4.8105493,0.072 14.0307923,1.6569 14.9708993,0 1.501984,-2.6473 0.09802,-5.8631 1.796508,-6.5872 16.513541,-7.0398 18.731264,-12.2896 19.16275,-17.3662"
         style="fill:none;stroke:#000000;stroke-width:0.59883595px;stroke-linecap:butt;stroke-linejoin:miter;stroke-opacity:1" />
      <path
         sodipodi:nodetypes="cccccc"
         inkscape:connector-curvature="0"
         id="path3112"
         d="m 52.108488,1009.1581 c -2.121234,10.8995 -3.090899,20.8569 -2.99418,29.9417 4.907047,1.0824 9.863445,1.5231 14.970896,0 l 2.994185,-2.9942 c -0.605476,-3.5683 -1.348303,-7.0406 0,-11.9766 1.730612,-4.7431 3.250026,-9.8451 2.994175,-17.9651"
         style="fill:none;stroke:#000000;stroke-width:0.59883595px;stroke-linecap:butt;stroke-linejoin:miter;stroke-opacity:1" />
      <path
         sodipodi:nodetypes="cccssc"
         inkscape:connector-curvature="0"
         id="path3114"
         d="m 79.056109,1007.9604 c -1.576339,8.3483 -0.07181,17.1832 0,25.1511 6.54796,0.6449 12.588922,0.194 13.174387,-2.9942 0.41209,-7.2948 -2.173345,-13.3553 -1.796509,-19.7615 0.598833,-10.1803 1.397175,-25.02955 0.598833,-31.13955 -1.306814,-10.00167 -12.691771,-14.29874 -20.959256,-20.36042"
         style="fill:none;stroke:#000000;stroke-width:0.59883595px;stroke-linecap:butt;stroke-linejoin:miter;stroke-opacity:1" />
      <path
         inkscape:connector-curvature="0"
         id="path3116"
         d="m 42.136623,1010.6766 9.581375,0.5987"
         style="fill:none;stroke:#000000;stroke-width:0.59883595px;stroke-linecap:butt;stroke-linejoin:miter;stroke-opacity:1" />
      <path
         inkscape:connector-curvature="0"
         id="path3118"
         d="m 69.846724,1009.0068 8.982536,0"
         style="fill:none;stroke:#000000;stroke-width:0.59883595px;stroke-linecap:butt;stroke-linejoin:miter;stroke-opacity:1" />
      <g
         transform="matrix(0.70018002,0,0,0.59883596,-32.416778,381.21138)"
         id="g3149">
        <path
           style="fill:none;stroke:#000000;stroke-width:1px;stroke-linecap:butt;stroke-linejoin:miter;stroke-opacity:1"
           d="m 118,989.36218 c 0,0 2.36123,16.02932 -5,23.00002 -10.95864,10.3772 -56.116071,-1.3036 -56.116071,-1.3036"
           id="path3097"
           inkscape:connector-curvature="0"
           sodipodi:nodetypes="csc" />
        <path
           style="fill:none;stroke:#000000;stroke-width:1px;stroke-linecap:butt;stroke-linejoin:miter;stroke-opacity:1"
           d="m 57,1011.3622 c 0,0 47.86877,18.0942 58.82741,7.717 C 123.18864,1012.1085 121,989.36218 121,989.36218 l -3,0"
           id="path3097-5"
           inkscape:connector-curvature="0"
           sodipodi:nodetypes="cscc" />
      </g>
      <path
         inkscape:transform-center-y="-0.20469555"
         inkscape:transform-center-x="0.20469505"
         transform="matrix(0.59883596,0,0,0.59883596,-21.642189,935.80369)"
         d="m 95,48 -3.832287,-1.662868 -1.959421,3.689474 -1.089309,-4.032984 -4.106227,0.768413 2.473941,-3.366181 -3.16096,-2.73128 L 87.5,40.5 l 0.164574,-4.174263 2.73128,3.16096 3.366181,-2.473941 -0.768413,4.106227 4.032984,1.089309 -3.689474,1.959421 z"
         inkscape:randomized="0"
         inkscape:rounded="0"
         inkscape:flatsided="false"
         sodipodi:arg2="1.2341971"
         sodipodi:arg1="0.78539816"
         sodipodi:r2="3.5355339"
         sodipodi:r1="7.0710678"
         sodipodi:cy="43"
         sodipodi:cx="90"
         sodipodi:sides="7"
         id="path3170"
         sodipodi:type="star" />
      <path
         inkscape:transform-center-y="0.34669172"
         transform="matrix(0.72612171,0,0,0.72612171,-36.825309,930.52573)"
         d="m 120,48 -1.08471,-2.747578 -2.82445,0.865027 1.47184,-2.561147 -2.43732,-1.668907 2.92006,-0.44612 -0.21484,-2.946119 L 120,40.5 l 2.16942,-2.004844 -0.21484,2.94612 2.92006,0.446119 -2.43732,1.668907 1.47184,2.561147 -2.82445,-0.865027 z"
         inkscape:randomized="0"
         inkscape:rounded="0"
         inkscape:flatsided="false"
         sodipodi:arg2="2.0195953"
         sodipodi:arg1="1.5707963"
         sodipodi:r2="2.5"
         sodipodi:r1="5"
         sodipodi:cy="43"
         sodipodi:cx="120"
         sodipodi:sides="7"
         id="path3172"
         sodipodi:type="star" />
      <path
         sodipodi:nodetypes="ccccscc"
         inkscape:connector-curvature="0"
         id="path3174"
         d="m 37.137588,946.28028 c -1.168754,2.73814 -2.925979,4.59357 -2.994179,8.98253 0.563024,3.45098 -1.187429,9.92993 2.994179,9.58138 5.245696,-1.12529 6.347961,0.30894 8.383704,0.59883 0,0 0,-4.79068 2.395343,-10.18021 1.146508,-2.57962 7.186033,-5.98836 7.186033,-5.98836 -6.898621,-5.67939 -12.447015,-4.41478 -17.96508,-2.99417 z"
         style="fill:none;stroke:#000000;stroke-width:0.59883595px;stroke-linecap:butt;stroke-linejoin:miter;stroke-opacity:1" />
      <path
         sodipodi:nodetypes="csscccc"
         inkscape:connector-curvature="0"
         id="path3178"
         d="m 70.672398,959.45466 c 0.405642,2.54181 -0.811081,5.71396 0,7.78487 1.529358,3.90485 3.146722,7.28803 3.186856,10.50361 0.172122,13.79395 -1.308911,20.27524 -0.791505,31.41496 l 2.994175,0 c 1.155715,-16.05407 2.854116,-31.24507 -2.994175,-47.90693 z"
         style="fill:none;stroke:#000000;stroke-width:0.59883595px;stroke-linecap:butt;stroke-linejoin:miter;stroke-opacity:1" />
      <path
         sodipodi:nodetypes="cccssssscssssssscc"
         inkscape:connector-curvature="0"
         id="path3198"
         d="m 32.945737,990.59414 c 0,0.59883 3.593015,3.59302 3.593015,3.59302 2.06755,1.20844 5.93353,1.04174 8.98254,0 0,0 3.156979,-0.99655 4.790688,-1.19768 3.367979,-0.41461 6.821454,-0.48369 10.180211,0 3.501019,0.50418 6.656676,2.68438 10.180207,2.99418 3.601237,0.31663 7.426086,0.15392 10.779053,-1.19767 3.036462,-1.224 5.702498,-3.46209 7.784869,-5.98836 0.851697,-1.03326 1.7965,-3.59302 1.7965,-3.59302 0,0 0.580399,2.92081 0,4.19185 -1.64578,3.60421 -4.753658,5.59805 -8.383702,7.18604 -3.312073,1.44889 -7.546303,2.04485 -11.377878,1.79651 -3.529728,-0.22878 -6.679197,-2.49001 -10.180213,-2.99419 -3.358757,-0.48369 -6.812232,-0.41461 -10.180211,0 -1.633709,0.20113 -3.15698,0.99656 -4.790689,1.19768 -3.16986,0.39022 -6.567622,1.05716 -9.581375,0 -1.206088,-0.42307 -2.994179,-2.39534 -2.994179,-2.39534 z"
         style="fill:none;stroke:#000000;stroke-width:0.59883595px;stroke-linecap:butt;stroke-linejoin:miter;stroke-opacity:1" />
      <path
         sodipodi:nodetypes="ccccssccccccc"
         inkscape:connector-curvature="0"
         id="path3211"
         d="m 37.137588,967.23953 c 1.261717,2.79458 1.330372,5.58914 1.197672,8.38371 l -3.593015,1.7965 3.593015,0.59885 c 0,0 1.502652,-1.19768 2.395344,-1.19768 1.785382,0 3.596136,1.06845 4.790688,2.39534 1.141094,1.26752 1.796507,4.7907 1.796507,4.7907 l 1.197673,-0.59885 -1.796509,-4.19185 c -0.69711,-2.3551 -3.108606,-3.27031 -4.790687,-3.59301 l -1.796508,-0.59884 c -0.16765,-2.50979 0.158219,-5.07441 1.796508,-7.78487 -1.596898,-0.62778 -3.193792,-0.78019 -4.790688,0 z"
         style="fill:none;stroke:#000000;stroke-width:0.59883595px;stroke-linecap:butt;stroke-linejoin:miter;stroke-opacity:1" />
      <path
         sodipodi:nodetypes="ccccc"
         inkscape:connector-curvature="0"
         id="path3213"
         d="m 41.714408,988.14533 c 0.01114,8.38628 2.299051,15.93777 6.587195,22.75577 1.265563,-0.2811 3.783129,0.9244 2.99418,-1.7965 -5.34309,-6.102 -7.544782,-13.14661 -7.186031,-20.95927 z"
         style="fill:none;stroke:#000000;stroke-width:0.59883595px;stroke-linecap:butt;stroke-linejoin:miter;stroke-opacity:1" />
      <path
         sodipodi:nodetypes="ccccc"
         inkscape:connector-curvature="0"
         id="path3219"
         d="m 11.986478,1025.9254 c -2.2682206,2.8282 -1.298102,2.8808 -1.796507,4.1919 l 1.796507,0 c 0.259893,-1.3407 0.688513,-2.1109 1.796508,-3.593 -0.259221,-1.0486 -0.97192,-0.9636 -1.796508,-0.5989 z"
         style="fill:none;stroke:#000000;stroke-width:0.59883595px;stroke-linecap:butt;stroke-linejoin:miter;stroke-opacity:1" />
      <path
         sodipodi:nodetypes="ccccc"
         inkscape:connector-curvature="0"
         id="path3219-4"
         d="m 14.980658,1027.1232 c -1.718525,2.1427 -0.820054,2.0006 -1.197672,2.9941 l 1.983644,0.2331 c 0.196908,-1.0159 -0.264318,-1.6507 0.575158,-2.7735 -0.1964,-0.7946 -0.736379,-0.7302 -1.36113,-0.4537 z"
         style="fill:none;stroke:#000000;stroke-width:0.4537099px;stroke-linecap:butt;stroke-linejoin:miter;stroke-opacity:1" />
      <path
         sodipodi:nodetypes="ccccc"
         inkscape:connector-curvature="0"
         id="path3219-4-8"
         d="m 19.076267,1027.4119 c -1.718523,2.1427 -0.820053,2.0006 -1.197671,2.9941 l 1.983644,0.233 c 0.871506,-1.6904 0.276367,-3.001 0.507942,-3.5158 -0.1964,-0.7946 -0.669163,0.013 -1.293915,0.2887 z"
         style="fill:none;stroke:#000000;stroke-width:0.4537099px;stroke-linecap:butt;stroke-linejoin:miter;stroke-opacity:1" />
      <path
         sodipodi:nodetypes="ccsc"
         inkscape:connector-curvature="0"
         id="path3257"
         d="m 54.503832,1039.6987 c 1.612737,0.4309 3.142649,0.6961 4.191851,0 0.190418,-2.1043 0.167985,-4.9674 -1.796508,-4.7907 -2.457491,0.221 -3.083059,2.748 -2.395343,4.7907 z"
         style="fill:none;stroke:#000000;stroke-width:0.59883595px;stroke-linecap:butt;stroke-linejoin:miter;stroke-opacity:1" />
      <path
         sodipodi:nodetypes="ccsc"
         inkscape:connector-curvature="0"
         id="path3257-3"
         d="m 61.091027,1039.6987 c 1.612736,0.4309 1.944976,-0.5016 2.994177,-1.1976 -0.598833,-1.7966 0.695197,-3.8896 -1.272525,-3.7536 -2.206673,0.1527 -1.221624,2.5845 -1.721652,4.9512 z"
         style="fill:none;stroke:#000000;stroke-width:0.59883595px;stroke-linecap:butt;stroke-linejoin:miter;stroke-opacity:1" />
      <path
         sodipodi:nodetypes="cscsc"
         inkscape:connector-curvature="0"
         id="path3257-3-5"
         d="m 52.108488,1039.6987 c -0.287674,0.077 -0.420554,0.012 -0.598836,0 -0.725923,-0.049 -0.834983,-0.5989 -1.796508,-0.5989 0.541755,-1.627 -0.678703,-4.7289 1.101451,-4.6058 1.996327,0.1382 0.841526,3.0612 1.293893,5.2047 z"
         style="fill:none;stroke:#000000;stroke-width:0.54205495px;stroke-linecap:butt;stroke-linejoin:miter;stroke-opacity:1" />
      <path
         sodipodi:nodetypes="ccccc"
         inkscape:connector-curvature="0"
         id="path3219-0"
         d="m 8.9922987,1025.2289 c -2.2453185,3.2137 -1.2849949,3.2733 -1.7783681,4.7634 l 1.7783681,0 c 0.2572688,-1.5237 0.6815611,-2.3987 1.7783683,-4.0829 -0.256605,-1.1916 -0.9621069,-1.095 -1.7783683,-0.6805 z"
         style="fill:none;stroke:#000000;stroke-width:0.63511628px;stroke-linecap:butt;stroke-linejoin:miter;stroke-opacity:1" />
      <path
         sodipodi:nodetypes="ccccc"
         inkscape:connector-curvature="0"
         id="path3219-4-9"
         d="m 81.60116,1029.9035 c -1.718533,2.1428 -0.820052,2.0007 -1.197676,2.9941 l 1.983651,0.2331 c 0.196902,-1.0159 -0.26432,-1.6506 0.575158,-2.7735 -0.196401,-0.7945 -0.736379,-0.7302 -1.361133,-0.4537 z"
         style="fill:none;stroke:#000000;stroke-width:0.4537099px;stroke-linecap:butt;stroke-linejoin:miter;stroke-opacity:1" />
      <path
         sodipodi:nodetypes="ccsc"
         inkscape:connector-curvature="0"
         id="path3257-3-2"
         d="m 86.459828,1033.07 c 1.124803,0.3266 1.356523,-0.3801 2.088281,-0.9077 -0.417647,-1.3616 0.484871,-2.9479 -0.887525,-2.8447 -1.539035,0.1156 -0.852011,1.9586 -1.200756,3.7524 z"
         style="fill:none;stroke:#000000;stroke-width:0.43538162px;stroke-linecap:butt;stroke-linejoin:miter;stroke-opacity:1" />
      <path
         sodipodi:nodetypes="ccsc"
         inkscape:connector-curvature="0"
         id="path3257-3-2-3"
         d="m 89.109852,1032.4483 c 0.861966,0.3397 1.039543,-0.3952 1.600312,-0.9439 -0.320059,-1.4161 0.371566,-3.0658 -0.680131,-2.9586 -1.179408,0.1203 -0.652929,2.0371 -0.920181,3.9025 z"
         style="fill:none;stroke:#000000;stroke-width:0.38868281px;stroke-linecap:butt;stroke-linejoin:miter;stroke-opacity:1" />
      <path
         sodipodi:nodetypes="ccsc"
         inkscape:connector-curvature="0"
         id="path3257-4"
         d="m 83.239555,1033.2302 c 0.861614,0.2835 1.678984,0.4581 2.239529,0 0.101736,-1.3844 0.08971,-3.2681 -0.959795,-3.1518 -1.312938,0.1453 -1.647153,1.8079 -1.279734,3.1518 z"
         style="fill:none;stroke:#000000;stroke-width:0.35503581px;stroke-linecap:butt;stroke-linejoin:miter;stroke-opacity:1" />
    </g>
  </g>
</svg>
